<svg preserveAspectRatio="none" overflow="visible" style="display: block;" width="100" height="100" viewBox="0 0 100 100" fill="none" xmlns="http://www.w3.org/2000/svg">
<g id="avatar">
<g clip-path="url(#clip0_0_132)">
<rect width="100" height="100" rx="50" fill="#E2E2E2"/>
<g id="Group">
<g id="Group_2">
<path id="Vector" d="M48.9823 65.5539C58.8074 65.5539 66.7722 57.5891 66.7722 47.764C66.7722 37.9389 58.8074 29.9741 48.9823 29.9741C39.1572 29.9741 31.1924 37.9389 31.1924 47.764C31.1924 57.5891 39.1572 65.5539 48.9823 65.5539Z" fill="#F7F7F7"/>
<path id="Vector_2" d="M34.2573 69.5374L37.9657 60.0604L57.1259 57.176L59.1845 78.1547L39.8183 78.5668L34.2573 69.5374Z" fill="#F7F7F7"/>
</g>
<path id="Vector_3" d="M66.9458 51.0465C66.7149 51.9715 66.2482 54.1739 65.5193 54.1847C64.9239 54.1934 64.3539 44.6387 64.9488 43.0583C65.632 41.2427 62.3352 39.3159 60.9826 38.137C57.8923 37.397 54.6536 40.199 49.1642 38.137C49.0187 38.0824 49.0477 38.0885 47.3143 37.397C41.9804 35.2688 40.4799 35.7567 40.1743 35.7264C37.5886 35.4706 35.6532 37.0371 34.3646 39.6169C33.0251 42.2986 34.1443 44.5988 32.8846 51.0866C32.7379 51.8429 32.5073 52.9207 32.1447 52.9366C31.4816 52.9655 30.8342 49.4242 30.6647 48.4967C29.9543 44.6107 29.2695 40.8642 30.6647 36.657C30.8169 36.1981 31.7549 34.4949 33.6246 31.1071C36.3183 26.2268 37.673 23.7774 38.0645 23.3373C40.8723 20.1798 45.9832 17.2993 50.2742 18.5275C52.443 19.1482 52.0541 20.1462 54.7141 21.1174C59.4543 22.8481 63.5741 20.7315 64.3338 22.2274C64.7363 23.0197 63.6102 23.673 63.5938 25.1873C63.5658 27.7855 66.8519 28.5364 68.7737 31.1071C69.8068 32.4892 71.5751 32.504 66.9458 51.0465Z" fill="black"/>
</g>
<path id="Vector_4" d="M88.8115 85.0576C88.0953 85.8805 87.3525 86.6866 86.5828 87.4737C76.244 98.0469 62.4974 103.87 47.8761 103.87C35.2387 103.87 23.2557 99.5201 13.561 91.5123C13.5548 91.5082 13.5507 91.5038 13.5445 91.4975C12.2584 90.437 11.0133 89.3088 9.81152 88.1176C9.83413 87.9324 9.85885 87.7493 9.88558 87.5683C10.0543 86.3477 10.2416 85.1838 10.4515 84.1126C12.1698 75.3324 34.7798 66.1144 35.3683 65.8743C35.3766 65.8723 35.3807 65.8702 35.3807 65.8702C35.3807 65.8702 38.2906 76.8393 50.7592 76.6983C59.2521 76.6035 57.6058 65.8702 57.6058 65.8702C57.6058 65.8702 57.7087 65.8912 57.9021 65.9333C60.3551 66.4658 77.3862 70.2919 84.1051 75.5134C86.1527 77.1044 87.622 80.4929 88.6777 84.5335C88.723 84.7061 88.7662 84.8829 88.8115 85.0576Z" fill="#999999"/>
</g>
</g>
<defs>
<clipPath id="clip0_0_132">
<rect width="100" height="100" rx="50" fill="white"/>
</clipPath>
</defs>
</svg>
